# xmcd
#
# Track frame offsets:
#	150
#	10027
#	28939
#	41876
#	53187
#	69563
#	81277
#	96518
#	109510
#	116402
#	129121
#	143593
#
# Disc length: 2046 seconds
#
# Revision: 0
# Processed by: cddbd v1.5.1PL0 Copyright (c) Steve Scherf et al.
# Submitted via: audiograbber 1.83.01
#
DISCID=9c07fc0c
DTITLE=Jonathan Edwards, Cathy Fink, John McCutcheon, Larry Penn, Phis and Naom
DTITLE=i Rosenthal - Grandma's Patchwork Quilt
DYEAR=1987
DGENRE=Bluegrass
TTITLE0=Cathy Fink - Zip-A-Dee-Doo-Dah
TTITLE1=Jonathan Edwards - Three Blind Mice
TTITLE2=Larry Penn - I'm A Little Cookie
TTITLE3=John McCutcheon - The Pumpkin Man
TTITLE4=Phil Rosenthal - A Duck Named Earl
TTITLE5=Jonathan Edwards - Oh Susanna
TTITLE6=Larry Penn - There's A Hole In My Back Yard
TTITLE7=Cathy Fink - You Can't Make A Turtle Come Out
TTITLE8=Naomi Sommers Rosenthal - Down the Mountainside We Go
TTITLE9=John McCutcheon - The Awful Hilly, Daddy-Willie Trip
TTITLE10=Larry Penn - On My Grandma's Patchwork Quilt
TTITLE11=Cathy Fink - Buffalo Gals
EXTD=
EXTT0=
EXTT1=
EXTT2=
EXTT3=
EXTT4=
EXTT5=
EXTT6=
EXTT7=
EXTT8=
EXTT9=
EXTT10=
EXTT11=
PLAYORDER=
